<?xml version="1.0" encoding="UTF-8" standalone="no"?>
<!-- Uploaded to: SVG Repo, www.svgrepo.com, Generator: SVG Repo Mixer Tools -->

<svg
   fill="#000000"
   width="614.84174"
   height="675.00055"
   viewBox="0 0 196.74936 216.00018"
   id="Flat"
   version="1.1"
   sodipodi:docname="guide-flower.svg"
   inkscape:version="1.4.4 (dcaf3e7d, 2026-05-05)"
   xmlns:inkscape="http://www.inkscape.org/namespaces/inkscape"
   xmlns:sodipodi="http://sodipodi.sourceforge.net/DTD/sodipodi-0.dtd"
   xmlns="http://www.w3.org/2000/svg"
   xmlns:svg="http://www.w3.org/2000/svg">
  <defs
     id="defs2" />
  <sodipodi:namedview
     id="namedview2"
     pagecolor="#ffffff"
     bordercolor="#000000"
     borderopacity="0.25"
     inkscape:showpageshadow="2"
     inkscape:pageopacity="0.0"
     inkscape:pagecheckerboard="0"
     inkscape:deskcolor="#d1d1d1"
     inkscape:zoom="0.58334814"
     inkscape:cx="206.56619"
     inkscape:cy="328.27738"
     inkscape:window-width="1440"
     inkscape:window-height="792"
     inkscape:window-x="0"
     inkscape:window-y="25"
     inkscape:window-maximized="1"
     inkscape:current-layer="Flat" />
  <path
     id="path1"
     d="m 95.897118,0.0839341 a 36,36 0 0 0 -33.54313,35.9162499 58.01145,58.01145 0 0 0 1.53,12.295625 58.01465,58.01465 0 0 0 -9.88375,-7.473125 36.000239,36.000239 0 0 0 -36,62.354376 57.99826,57.99826 0 0 0 11.41375,4.82312 58.016,58.016 0 0 0 -11.41375,4.82313 36,36 0 0 0 36,62.35374 58.00132,58.00132 0 0 0 9.88375,-7.4725 58.01937,58.01937 0 0 0 -1.53,12.29563 36,36 0 0 0 72.000002,0 58.01145,58.01145 0 0 0 -1.53,-12.29563 58.01465,58.01465 0 0 0 9.88375,7.47313 36.000236,36.000236 0 0 0 36,-62.35437 57.99826,57.99826 0 0 0 -11.41375,-4.82313 58.016,58.016 0 0 0 11.41375,-4.82312 36,36 0 1 0 -36,-62.353751 58.00132,58.00132 0 0 0 -9.88375,7.4725 58.01937,58.01937 0 0 0 1.53,-12.295625 A 36,36 0 0 0 95.897118,0.0839341 Z m 1.53312,87.9374999 a 20,20 0 1 1 0.92375,39.978746 20.02229,20.02229 0 0 1 -20,-20 20,20 0 0 1 19.07625,-19.978746 z" />
</svg>
